<svg width="129" height="167" viewBox="0 0 129 167" fill="none" xmlns="http://www.w3.org/2000/svg">
<path d="M111.816 1H17.0603C8.19045 1 1 8.35024 1 17.4172V149.583C1 158.65 8.19045 166 17.0603 166H111.816C120.686 166 127.877 158.65 127.877 149.583V17.4172C127.877 8.35024 120.686 1 111.816 1Z" stroke="#F5B02B" stroke-width="0.82" stroke-miterlimit="10"/>
<path d="M50.7457 109.929H46.5247C45.4403 109.929 44.8912 109.375 44.8912 108.273V102.632C44.8912 101.931 44.548 101.573 43.8617 101.573H41.1918C40.5261 101.573 40.1898 101.952 40.1898 102.71V108.273C40.1898 109.382 39.6476 109.929 38.5632 109.929H34.3696C35.1589 109.929 35.5501 109.529 35.5501 108.722V86.0889C35.5501 85.2891 35.1589 84.8821 34.3696 84.8821H45.6256C46.8129 84.8821 47.7532 85.2049 48.4464 85.8573C49.1877 86.5519 49.5583 87.5341 49.5583 88.804V94.3887C49.5583 95.6235 49.0298 96.6267 47.966 97.3845C49.0298 97.9949 49.5583 99.1595 49.5583 100.885V108.715C49.5583 109.515 49.9495 109.922 50.7388 109.922L50.7457 109.929ZM44.8981 92.3611V90.6141C44.8981 89.9055 44.5549 89.5547 43.8686 89.5547H41.2261C40.5398 89.5547 40.1966 89.9055 40.1966 90.6141V96.1216C43.3332 94.5921 44.8981 93.3363 44.8981 92.3611Z" fill="#E6AE28"/>
<path d="M68.3436 94.3326C68.3436 95.5814 67.7877 96.5917 66.6689 97.3634C67.7877 98.1352 68.3436 99.1525 68.3436 100.408V106C68.3436 107.27 67.973 108.252 67.2249 108.947C66.5248 109.599 65.5845 109.922 64.404 109.922H53.1206C53.9099 109.922 54.3011 109.522 54.3011 108.715V86.0327C54.3011 85.2259 53.9099 84.826 53.1206 84.826H64.404C65.5845 84.826 66.5248 85.1487 67.2249 85.8012C67.9661 86.4958 68.3436 87.471 68.3436 88.7339V94.3255V94.3326ZM63.6765 93.8414V90.572C63.6765 89.8634 63.3333 89.5126 62.647 89.5126H60.0046C59.3182 89.5126 58.9751 89.8634 58.9751 90.572V93.8414C58.9751 94.55 59.3182 94.9008 60.0046 94.9008H62.647C63.3333 94.9008 63.6765 94.55 63.6765 93.8414ZM63.6765 104.176V100.927C63.6765 100.226 63.3333 99.8681 62.647 99.8681H60.0046C59.3182 99.8681 58.9751 100.219 58.9751 100.927V104.176C58.9751 104.877 59.3182 105.228 60.0046 105.228H62.647C63.3333 105.228 63.6765 104.877 63.6765 104.176Z" fill="#E6AE28"/>
<path d="M88.4394 109.943L77.0393 109.957C74.3694 109.957 73.0379 108.624 73.0379 105.951V100.345C73.0379 98.7666 73.8478 97.5879 75.4744 96.8092C76.9844 96.29 78.4943 95.7638 80.0043 95.2446C81.6309 94.5921 82.4408 93.645 82.4408 92.3962V90.5861C82.4408 89.8775 82.0976 89.5267 81.4044 89.5267H78.8032C78.11 89.5267 77.7668 89.8775 77.7668 90.5861V91.4139C77.7668 92.4242 77.204 93.0065 76.0784 93.1539H71.8574C72.6467 93.1539 73.0379 92.754 73.0379 91.9471V88.7689C73.0379 86.138 74.3694 84.826 77.0393 84.826H83.1751C85.845 84.826 87.1765 86.138 87.1765 88.7689V108.715C87.1765 109.529 87.5952 109.936 88.4325 109.936L88.4394 109.943ZM82.4476 104.127V98.8298C80.8416 99.4051 79.7091 99.9242 79.0365 100.394C78.1992 100.963 77.7805 101.601 77.7805 102.317V104.127C77.7805 104.835 78.1237 105.186 78.8169 105.186H81.4181C82.1113 105.186 82.4545 104.835 82.4545 104.127H82.4476Z" fill="#E6AE28"/>
<path d="M113.244 84.833C112.468 84.833 112.077 85.2119 112.063 85.9766V108.785C112.063 109.543 112.455 109.929 113.244 109.929H109.242C108.563 109.929 107.966 109.627 107.458 109.017L98.2268 96.2058C97.7944 95.5954 97.41 95.2937 97.0737 95.2937C96.6756 95.2937 96.4766 95.5814 96.4766 96.1567V108.329C96.4766 109.396 95.8589 109.922 94.6235 109.922H90.6084C91.4046 109.922 91.8026 109.543 91.8026 108.778V85.9696C91.7889 85.2119 91.3908 84.826 90.6084 84.826H94.5892C95.1176 84.826 95.5363 84.9804 95.8314 85.2891C96.0991 85.6539 96.3599 86.0187 96.6139 86.3976C97.4649 87.5903 101.054 92.7891 107.396 101.98V86.4607C107.396 86.0819 107.554 85.724 107.877 85.4013C108.24 85.0224 108.7 84.833 109.263 84.833H113.251H113.244Z" fill="#E6AE28"/>
<path d="M33.711 84.9102C32.9011 84.9102 32.4961 85.289 32.4961 86.0468V105.951C32.4961 108.617 31.1921 109.95 28.5772 109.95H20.7323C18.1174 109.95 16.8133 108.617 16.8133 105.951V86.0468C16.8133 85.289 16.4221 84.9102 15.6328 84.9102H19.6273C20.8627 84.9102 21.4804 85.4434 21.4804 86.5028V104.064C21.4804 104.765 21.8236 105.123 22.5168 105.123H26.8201C27.5133 105.123 27.8565 104.772 27.8565 104.064V86.5028C27.8565 85.4434 28.4811 84.9102 29.7233 84.9102H33.711Z" fill="#E6AE28"/>
<path d="M16.9365 116.04H35.1725V116.292L36.6962 117.85V125.273H31.4594V147.562C31.4594 147.899 31.1918 148.172 30.8623 148.172H24.1568C23.9989 148.172 23.8479 148.109 23.7313 147.997L22.5576 146.797C22.4478 146.685 22.2968 146.622 22.1321 146.622V125.287H18.7073L17.1836 123.729H16.9365V116.054V116.04ZM29.3936 123.126H34.5891V116.629H17.513V123.126H22.7086V145.415C22.7086 145.752 22.9763 146.026 23.3057 146.026H28.7964C29.1259 146.026 29.3936 145.752 29.3936 145.415V123.126Z" fill="#E6AE28"/>
<path d="M38.0552 116.04H56.703V116.292L58.2267 117.85V147.562C58.2267 147.899 57.959 148.173 57.6296 148.173H51.2123C51.0545 148.173 50.9035 148.109 50.7868 147.99L49.4347 146.608H49.27L49.071 146.405C48.9611 146.292 48.8925 146.138 48.8925 145.97V139.662C48.8925 139.326 48.6248 139.052 48.2954 139.052H47.966C47.6365 139.052 47.3688 139.326 47.3688 139.662V147.548C47.3688 147.885 47.1012 148.159 46.7717 148.159H40.0662C39.9083 148.159 39.7573 148.095 39.6407 147.976L38.467 146.776C38.3572 146.664 38.2062 146.594 38.0415 146.594V116.019L38.0552 116.04ZM56.1265 145.408V116.629H38.6386V145.408C38.6386 145.745 38.9063 146.019 39.2357 146.019H44.6853C45.0147 146.019 45.2824 145.745 45.2824 145.408V137.565C45.2824 137.228 45.55 136.954 45.8795 136.954H48.8925C49.222 136.954 49.4896 137.228 49.4896 137.565V145.977L49.5308 146.019H55.5363C55.8657 146.019 56.1334 145.745 56.1334 145.408H56.1265ZM45.2755 123.119H49.4828V129.763C49.4828 130.1 49.2151 130.373 48.8856 130.373H45.8726C45.5432 130.373 45.2755 130.1 45.2755 129.763V123.119ZM47.3826 129.784H48.9062V125.273H47.3826V129.784Z" fill="#E6AE28"/>
<path d="M59.5923 116.04H78.2401V116.292L79.7638 117.85V138.54C79.7638 138.799 79.5991 139.031 79.3589 139.115L69.3109 142.665C69.0707 142.749 68.9059 142.981 68.9059 143.24V147.548C68.9059 147.885 68.6383 148.159 68.3088 148.159H61.6033C61.4455 148.159 61.2945 148.095 61.1778 147.976L60.0041 146.776C59.8943 146.664 59.7433 146.594 59.5786 146.594V116.019L59.5923 116.04ZM67.2176 140.609L77.2518 137.137C77.492 137.052 77.6568 136.821 77.6568 136.561V116.629H60.1689V145.408C60.1689 145.745 60.4365 146.019 60.766 146.019H66.2155C66.5449 146.019 66.8126 145.745 66.8126 145.408V141.185C66.8126 140.925 66.9773 140.694 67.2176 140.609ZM66.8126 123.126H71.0199V132.008C71.0199 132.268 70.8552 132.506 70.6081 132.59L67.595 133.615C67.2107 133.748 66.8058 133.453 66.8058 133.032V123.126H66.8126ZM69.709 132.289L70.0384 132.169C70.2786 132.085 70.4365 131.854 70.4365 131.594V125.28H68.9128V131.713C68.9128 132.134 69.3177 132.429 69.709 132.289Z" fill="#E6AE28"/>
<path d="M90.4504 145.998V147.562C90.4504 147.899 90.1827 148.173 89.8533 148.173H83.1477C82.9899 148.173 82.8389 148.109 82.7222 147.99L81.5486 146.79C81.4388 146.678 81.2878 146.608 81.123 146.608V116.033H99.7709V116.285L101.295 117.843V138.449C101.295 138.708 101.137 138.94 100.896 139.024L98.1374 140.006C97.7599 140.139 97.6158 140.609 97.8491 140.939L102.235 147.19C102.516 147.597 102.235 148.159 101.748 148.159H94.1635C94.0056 148.159 93.8546 148.095 93.7379 147.983L92.3859 146.601H92.2211L91.5279 145.626C91.1848 145.149 90.4504 145.394 90.4504 145.984V145.998ZM99.6816 145.058L95.495 139.017C95.2616 138.68 95.4126 138.217 95.7901 138.084L98.7894 137.052C99.0296 136.968 99.1943 136.737 99.1943 136.47V116.622H81.7064V145.401C81.7064 145.738 81.9741 146.012 82.3035 146.012H87.7531C88.0825 146.012 88.3502 145.738 88.3502 145.401V141.999C88.3502 141.409 89.0914 141.164 89.4346 141.641L92.3378 145.759C92.4476 145.92 92.6329 146.012 92.8251 146.012H99.2012C99.6885 146.012 99.9699 145.45 99.6885 145.051L99.6816 145.058ZM88.3433 132.948V123.126H92.5506V131.924C92.5506 132.183 92.3859 132.422 92.1388 132.506L89.1257 133.53C88.7414 133.664 88.3365 133.369 88.3365 132.948H88.3433ZM91.2397 132.204L91.5691 132.085C91.8093 132.001 91.9672 131.769 91.9672 131.51V125.28H90.4435V131.629C90.4435 132.05 90.8485 132.345 91.2397 132.204Z" fill="#E6AE28"/>
<path d="M102.66 116.04H110.416V116.292L111.939 117.85V147.562C111.939 147.899 111.672 148.173 111.342 148.173H104.678C104.52 148.173 104.369 148.109 104.252 147.99L103.079 146.79C102.969 146.678 102.818 146.608 102.653 146.608V116.033L102.66 116.04ZM103.834 146.019H109.242C109.572 146.019 109.839 145.745 109.839 145.408V116.629H103.237V145.408C103.237 145.745 103.504 146.019 103.834 146.019Z" fill="#E6AE28"/>
<path d="M74.411 38.1492C74.3492 38.1211 74.2806 38.1211 74.2188 38.1492C74.157 38.1772 74.109 38.2263 74.0816 38.2825C74.0129 38.4579 73.9374 38.6262 73.8619 38.7946C73.8002 38.9209 73.8551 39.0682 73.9786 39.1314C73.9923 39.1384 74.0061 39.1454 74.0266 39.1454C74.1433 39.1735 74.26 39.1174 74.308 39.0121C74.3904 38.8437 74.4659 38.6613 74.5414 38.4789C74.5689 38.4158 74.5689 38.3456 74.5414 38.2825C74.5139 38.2193 74.4659 38.1702 74.411 38.1421V38.1492Z" fill="#F5B02B"/>
<path d="M73.7382 39.6015C73.6215 39.5313 73.4705 39.5664 73.4019 39.6856C72.6606 40.9485 71.7615 41.7764 70.6565 42.2254C70.533 42.2745 70.4712 42.4218 70.5192 42.5551C70.5673 42.6814 70.7114 42.7446 70.8418 42.6955C72.0498 42.2044 73.0244 41.3063 73.8274 39.9452C73.8617 39.8891 73.8686 39.8189 73.8548 39.7558C73.8411 39.6927 73.7999 39.6365 73.745 39.6015H73.7382Z" fill="#F5B02B"/>
<path d="M78.0897 36.5145C78.0691 36.4162 78.0554 36.325 78.0485 36.2268C78.0485 35.8059 77.8838 35.3989 77.5818 35.1113C77.5132 35.0481 77.4926 34.9569 77.5132 34.8657L77.7603 33.8835C77.8701 33.4485 77.9044 33.3994 78.3642 33.5257C78.5701 33.5818 78.7966 33.5397 78.9751 33.4134C79.1535 33.2871 79.2702 33.0907 79.2908 32.8662C79.3183 32.4803 79.0712 32.1295 78.7006 32.0453C77.472 31.7366 76.6553 32.2348 76.3327 33.4976L76.0856 34.4728C76.065 34.564 76.0032 34.6342 75.914 34.6552C75.4885 34.7605 75.111 35.0201 74.8571 35.3849C74.8365 35.413 74.8159 35.441 74.809 35.4761C74.2188 35.7778 73.7452 36.4934 73.1755 37.8826C71.9264 40.9275 70.1213 42.0009 67.1357 41.4747C66.0719 41.2712 65.0287 40.9836 64.0198 40.6047C63.1413 40.296 62.6059 40.1066 62.2765 40.296C62.1461 40.3662 62.0568 40.4925 62.0225 40.6398C61.7754 41.622 62.7981 43.4532 66.6553 44.4845C75.0767 46.7296 77.2936 40.7731 77.774 38.8929C77.925 38.3035 78.1309 37.4827 77.9936 36.7741C78.076 36.7179 78.1172 36.6197 78.0966 36.5215L78.0897 36.5145ZM76.0032 35.1604C76.2778 35.1043 76.4974 34.8868 76.5592 34.6132L76.8063 33.6379C77.0602 32.6487 77.623 32.3049 78.577 32.5435C78.7074 32.5715 78.7966 32.6838 78.7966 32.8171C78.7966 32.8943 78.7486 32.9574 78.6937 32.9995C78.6388 33.0416 78.5564 33.0556 78.4878 33.0346C77.6916 32.8241 77.4377 33.1398 77.2798 33.7572L77.0259 34.7394C76.9504 35.0131 77.0396 35.3077 77.2455 35.4901C77.4102 35.6445 77.5132 35.862 77.5201 36.0935C77.1288 35.9883 76.7102 36.0584 76.367 36.29C76.1886 35.9041 75.8797 35.5954 75.4953 35.413C75.6258 35.2797 75.7973 35.1955 75.9758 35.1604H76.0032ZM66.772 43.9934C63.1618 43.0322 62.3314 41.4045 62.4961 40.7661C62.4961 40.7591 62.4961 40.7521 62.503 40.7451C62.6196 40.6538 63.306 40.8924 63.8551 41.0888C64.8914 41.4747 65.9621 41.7764 67.0534 41.9869C70.2655 42.5552 72.297 41.3554 73.6354 38.093C74.2394 36.6197 74.6855 36.0023 75.2689 35.855C75.5777 35.9813 75.8248 36.2268 75.9621 36.5355C76.0238 36.6618 76.1336 36.746 76.264 36.7881C76.3945 36.8232 76.5317 36.8021 76.6484 36.732C76.868 36.5636 77.1563 36.5145 77.424 36.5916C77.6848 37.202 77.4514 38.1422 77.2867 38.7736C76.8337 40.5346 74.7472 46.1262 66.772 44.0004V43.9934Z" fill="#F5B02B"/>
<path d="M59.8328 20.5673C59.6681 21.1356 59.2357 21.5145 58.6866 21.5215C58.714 21.3321 59.2082 20.7497 59.8328 20.5673ZM68.5012 23.6192C69.819 23.5351 71.1368 24.0121 72.0771 24.9593C71.7613 25.4855 71.4319 25.9766 71.0819 26.4326C70.876 26.6782 70.821 27.057 70.9858 27.3587C71.3907 28.2638 72.3447 28.8601 73.3331 28.8671C73.134 29.8494 72.5369 30.7123 71.7202 31.2525C72.0016 28.6146 69.5582 25.8924 67.2246 25.0294C67.0736 24.9873 66.8883 25.0435 66.8472 25.1978C66.806 25.3522 66.8609 25.5416 67.0119 25.5837C68.4532 26.1239 70.3338 27.7235 70.9446 29.6459C71.7202 32.0383 70.0592 34.0168 68.2473 33.7292C68.3914 32.2558 67.1423 28.825 64.5273 26.4186C64.3901 26.3204 64.2253 26.3274 64.1087 26.4326C64.0126 26.5729 64.0194 26.7413 64.1224 26.8606C65.7147 28.3199 66.8952 30.2703 67.4923 32.326C67.9316 33.7783 67.7325 34.7605 66.3599 35.4481C65.3578 35.9672 63.8684 36.1988 62.8733 35.5393C61.8643 34.8447 61.0682 33.68 60.7456 32.2979C60.3132 30.5369 60.5672 28.5655 60.8074 26.8676C60.8211 26.7273 60.6976 26.58 60.5603 26.5729C60.423 26.5659 60.2789 26.6852 60.272 26.8255C60.0524 28.5584 59.7847 30.586 60.2377 32.4593C60.6564 34.2694 61.9467 36.1146 63.6625 36.4513C62.434 37.4897 60.5877 37.7002 59.1396 36.9916C57.5747 36.2198 56.6139 34.3606 56.8335 32.6277C57.1423 30.2773 59.2631 28.4322 59.7161 25.9555C59.9495 24.6506 59.6612 23.2404 58.9337 22.1249C59.6269 21.9916 60.1142 21.5496 60.3269 20.9111C60.9378 21.5706 61.5486 22.2301 62.2693 22.7773C64.9666 24.7839 66.6824 23.6964 68.515 23.6192H68.5012ZM77.1628 26.5028C77.8697 24.9733 77.5472 23.1071 76.6137 21.76C75.797 20.5603 74.5616 19.6903 73.237 19.1291C73.0654 19.0519 72.8801 18.9396 72.7085 18.8625C72.4339 18.7572 72.1663 19.0379 72.3379 19.2904C73.2232 20.6235 73.4085 22.3073 72.3379 24.4331C71.3015 23.5351 69.8808 23.0299 68.46 23.086C66.5452 23.1632 65.0627 24.2156 62.5987 22.3283C61.7888 21.6969 61.0545 20.8901 60.3956 20.1253C60.375 20.0902 60.3269 20.0762 60.2789 20.0622C60.0044 19.8657 58.8444 20.1674 58.2542 21.1988C58.0963 21.4583 58.0963 21.8512 58.3434 22.1529C59.0984 23.1632 59.421 24.5524 59.2013 25.8082C58.6797 28.7128 55.4402 30.9298 56.4903 34.4728C56.9433 36.6548 58.714 38.058 60.574 38.1843C61.9673 38.3176 63.5527 37.8615 64.4656 36.7811C66.0098 37.0407 67.6021 36.2829 68.3708 34.543C70.0318 34.6974 71.528 33.5959 71.981 31.9892C73.1958 31.4771 74.04 30.3545 74.191 29.0496C74.692 29.0285 75.1999 28.6988 75.6186 28.376C76.2363 27.8569 76.8128 27.2675 77.1697 26.5028H77.1628ZM73.4154 20.1674C74.4518 20.9813 75.1175 22.3003 75.1175 23.6543C75.0969 25.275 74.1155 26.7834 72.8732 27.485C72.7085 27.5762 72.6673 27.7306 72.7359 27.8639C72.8046 27.9972 72.9762 28.0743 73.1066 28.0042C75.5087 26.6922 76.5039 23.3947 74.7538 20.855C74.9597 21.0023 75.1313 21.1637 75.3234 21.3601C76.1539 22.195 76.9157 23.5982 76.6343 24.9803C76.4765 25.724 76.0441 26.5729 75.5499 27.1553C75.0558 27.7376 74.4037 28.1094 73.6556 28.2217C72.7908 28.362 71.8849 27.8639 71.4868 27.043C71.4319 26.9448 71.4456 26.8045 71.5211 26.7203C73.0173 24.7488 74.1361 22.5528 73.4085 20.1744L73.4154 20.1674Z" fill="#E6AE28"/>
<path d="M92.3789 37.4336C91.5964 35.6866 89.757 34.7044 87.8627 35.0271C86.0371 35.3358 84.6232 36.9144 84.4516 38.8227C84.4173 39.2296 84.4448 39.6015 84.0536 39.9312C80.9994 42.478 77.9657 45.0458 74.9321 47.6136H72.0152C67.4854 47.6557 62.9487 47.6347 58.4188 47.6277C58.0894 47.6277 57.7599 47.5715 57.6295 47.5645C57.5129 46.1263 57.4442 44.8564 57.3001 43.5795C57.2109 42.7376 56.7648 42.6113 56.0578 43.0533C54.8224 43.8671 53.9027 44.9336 53.3193 46.5402C51.9947 44.267 51.0544 42.0921 50.7113 39.6857C50.6838 39.4471 50.8142 39.1244 50.9652 38.935C52.4546 37.167 52.6261 35.8971 51.5074 33.7502C51.226 33.203 50.7799 32.7329 50.4161 32.2418C49.9563 32.7048 49.4141 33.1258 49.0709 33.659C47.9522 35.3498 47.8492 37.2161 48.9542 38.3456C49.819 39.2296 49.8465 40.275 50.121 41.4677C48.3914 41.0117 46.8883 41.3484 45.4264 42.0641C44.7264 42.4008 44.5823 42.8569 45.2137 43.3409C46.0922 44.0215 46.9844 44.8844 48.0002 45.1511C48.9748 45.3966 50.121 44.9827 51.3427 44.8424C51.7339 45.551 52.2418 46.5051 52.8526 47.6277H51.4937C49.5857 47.6277 47.6914 47.6277 45.7971 47.6347C44.5548 47.6417 44.2116 47.9785 44.2048 49.2203C44.1842 50.7708 44.191 52.3213 44.191 53.8648C44.191 56.0748 44.2254 56.0959 46.401 56.3063C46.456 56.3063 46.504 56.3765 46.6344 56.4817V57.5973C46.6344 61.4279 46.6138 65.2656 46.655 69.0963C46.6824 73.0182 49.0229 76.2105 52.6399 77.3049C53.1615 77.4733 53.7174 77.5575 54.39 77.7189H77.8903C78.5491 77.5575 79.1051 77.4733 79.6404 77.3049C83.2505 76.2105 85.5841 73.0182 85.6253 69.0963L85.5566 59.3232V56.3414C85.838 56.3063 86.0028 56.2642 86.1812 56.2642C87.8902 56.173 88.103 55.9485 88.103 54.2086V49.4588C88.0892 47.9434 87.8422 47.6908 86.3116 47.6277H84.9252C84.9733 47.5715 85.0213 47.5154 85.0693 47.4523C86.0028 46.2175 86.998 45.0248 87.9863 43.8321C88.1373 43.6637 88.4187 43.5304 88.6383 43.5163C89.6335 43.4813 90.5051 43.1515 91.267 42.5131C92.7083 41.3134 93.1681 39.2016 92.3789 37.4336ZM49.9837 44.1197C48.8101 44.7722 47.41 44.3442 46.1402 42.8849C47.6365 42.0009 49.2494 41.9518 50.1279 42.7586C50.8005 43.355 50.7593 43.6777 49.9837 44.1197ZM50.2308 38.2404C48.7003 37.174 48.7209 35.3148 50.2789 33.659C51.6241 35.1674 51.6172 37.195 50.2308 38.2404ZM54.6028 45.993C55.0283 45.2493 55.6323 44.6178 56.1745 43.9303L56.5451 44.0706C56.5451 45.0248 56.6 45.9789 56.5039 46.912C56.4765 47.1786 56.051 47.5435 55.749 47.5926C55.3372 47.6768 54.6302 47.6347 54.5136 47.4032C54.3283 47.0383 54.3763 46.3718 54.6028 45.993ZM84.6644 60.7264C84.6644 63.5257 84.6713 66.318 84.6644 69.1104C84.6644 69.4682 84.637 69.812 84.5958 70.1627C84.5752 70.3311 84.5477 70.4995 84.5065 70.6679C84.3487 71.5308 84.081 72.3166 83.7035 73.0112C82.4475 75.3615 80.0385 76.7086 76.799 76.7086C72.5094 76.7156 68.2129 76.7086 63.9164 76.7156H63.5458C60.8553 76.7156 58.1649 76.7156 55.4744 76.7086C50.5877 76.7086 47.5747 73.6286 47.5747 68.6403V56.3274H84.6644V60.7264ZM86.0028 48.4906C86.9842 48.4906 87.2862 48.7853 87.2382 49.7675C87.1695 51.1988 87.1627 52.6511 87.245 54.0823C87.2931 55.1136 86.9087 55.3311 85.9616 55.3311C73.7722 55.3031 61.5691 55.3031 49.3729 55.3031C48.2542 55.3031 47.1217 55.275 45.9892 55.3241C45.3029 55.3381 45.0764 55.0645 45.0901 54.37C45.1176 52.8194 45.1656 51.2689 45.0764 49.7395C45.0215 48.68 45.4264 48.4976 46.353 48.4976C52.9968 48.5257 59.6405 48.5187 66.2774 48.5187C68.9473 48.5187 71.6034 48.5187 74.2664 48.5187H75.3577C78.906 48.5187 82.4544 48.5187 86.0028 48.4836V48.4906ZM88.501 42.3728C87.9314 42.3657 87.5402 42.5762 87.1901 43.0182C86.4008 44.0285 85.5841 45.0178 84.7811 46.014C84.3624 46.5332 83.9438 47.0594 83.4908 47.6207H76.6892C79.4208 45.2703 82.1661 42.9551 84.9252 40.6398C85.3507 40.282 85.5429 39.8751 85.5361 39.2998C85.5155 37.4967 86.8676 36.0935 88.5834 36.0865C90.2787 36.0795 91.6719 37.4967 91.6651 39.2226C91.6651 41.0047 90.2718 42.4149 88.501 42.3728Z" fill="#F5B02B"/>
</svg>
