<svg width="143" height="170" viewBox="0 0 143 170" fill="none" xmlns="http://www.w3.org/2000/svg">
<g id="Layer 2">
<g id="Group">
<path id="Vector" d="M124.152 1.3457H18.8481C8.99087 1.3457 1 8.8127 1 18.0237V152.289C1 161.5 8.99087 168.967 18.8481 168.967H124.152C134.009 168.967 142 161.5 142 152.289V18.0237C142 8.8127 134.009 1.3457 124.152 1.3457Z" stroke="black" stroke-width="0.82" stroke-miterlimit="10"/>
<g id="Group_2">
<g id="Group_3">
<path id="Vector_2" d="M56.2834 112.005H51.5926C50.3875 112.005 49.7773 111.442 49.7773 110.323V104.593C49.7773 103.88 49.3959 103.517 48.6332 103.517H45.6661C44.9262 103.517 44.5525 103.901 44.5525 104.671V110.323C44.5525 111.449 43.9499 112.005 42.7448 112.005H38.0845C38.9616 112.005 39.3964 111.599 39.3964 110.779V87.7865C39.3964 86.9739 38.9616 86.5605 38.0845 86.5605H50.5934C51.9129 86.5605 52.9579 86.8884 53.7283 87.5512C54.552 88.2569 54.9639 89.2547 54.9639 90.5447V96.2181C54.9639 97.4725 54.3766 98.4917 53.1943 99.2615C54.3766 99.8816 54.9639 101.065 54.9639 102.818V110.772C54.9639 111.585 55.3987 111.998 56.2758 111.998L56.2834 112.005ZM49.7849 94.1583V92.3836C49.7849 91.6637 49.4035 91.3074 48.6408 91.3074H45.7042C44.9415 91.3074 44.5601 91.6637 44.5601 92.3836V97.9786C48.0458 96.4248 49.7849 95.149 49.7849 94.1583Z" fill="black"/>
<path id="Vector_3" d="M75.8399 96.161C75.8399 97.4297 75.2221 98.456 73.9788 99.24C75.2221 100.024 75.8399 101.057 75.8399 102.333V108.014C75.8399 109.304 75.428 110.302 74.5967 111.007C73.8187 111.67 72.7737 111.998 71.4618 111.998H58.9224C59.7995 111.998 60.2343 111.592 60.2343 110.772V87.7293C60.2343 86.9097 59.7995 86.5034 58.9224 86.5034H71.4618C72.7737 86.5034 73.8187 86.8313 74.5967 87.4941C75.4204 88.1997 75.8399 89.1904 75.8399 90.4734V96.1538V96.161ZM70.6533 95.6621V92.3407C70.6533 91.6209 70.2719 91.2645 69.5092 91.2645H66.5726C65.8099 91.2645 65.4285 91.6209 65.4285 92.3407V95.6621C65.4285 96.3819 65.8099 96.7383 66.5726 96.7383H69.5092C70.2719 96.7383 70.6533 96.3819 70.6533 95.6621ZM70.6533 106.161V102.861C70.6533 102.148 70.2719 101.784 69.5092 101.784H66.5726C65.8099 101.784 65.4285 102.141 65.4285 102.861V106.161C65.4285 106.873 65.8099 107.23 66.5726 107.23H69.5092C70.2719 107.23 70.6533 106.873 70.6533 106.161Z" fill="black"/>
<path id="Vector_4" d="M98.1729 112.019L85.5038 112.034C82.5367 112.034 81.057 110.679 81.057 107.964V102.269C81.057 100.665 81.9571 99.4681 83.7648 98.6769C85.4428 98.1495 87.1208 97.615 88.7988 97.0875C90.6065 96.4247 91.5066 95.4625 91.5066 94.1938V92.355C91.5066 91.6351 91.1252 91.2787 90.3548 91.2787H87.464C86.6937 91.2787 86.3123 91.6351 86.3123 92.355V93.196C86.3123 94.2223 85.6869 94.8139 84.436 94.9636H79.7451C80.6223 94.9636 81.057 94.5573 81.057 93.7377V90.509C81.057 87.8362 82.5367 86.5034 85.5038 86.5034H92.3227C95.2897 86.5034 96.7695 87.8362 96.7695 90.509V110.772C96.7695 111.599 97.2347 112.012 98.1653 112.012L98.1729 112.019ZM91.5142 106.111V100.73C89.7294 101.314 88.4709 101.841 87.7234 102.319C86.7928 102.896 86.3276 103.545 86.3276 104.272V106.111C86.3276 106.831 86.7089 107.187 87.4793 107.187H90.3701C91.1404 107.187 91.5218 106.831 91.5218 106.111H91.5142Z" fill="black"/>
<path id="Vector_5" d="M125.739 86.5105C124.877 86.5105 124.442 86.8954 124.427 87.6723V110.843C124.427 111.613 124.861 112.005 125.739 112.005H121.292C120.537 112.005 119.873 111.699 119.309 111.079L109.05 98.064C108.569 97.4439 108.142 97.1374 107.768 97.1374C107.326 97.1374 107.105 97.4296 107.105 98.0141V110.38C107.105 111.463 106.418 111.998 105.046 111.998H100.583C101.468 111.998 101.911 111.613 101.911 110.836V87.6652C101.895 86.8954 101.453 86.5034 100.583 86.5034H105.007C105.595 86.5034 106.06 86.6602 106.388 86.9738C106.685 87.3444 106.975 87.7151 107.257 88.0999C108.203 89.3116 112.192 94.593 119.24 103.93V88.1641C119.24 87.7792 119.416 87.4157 119.774 87.0879C120.178 86.703 120.689 86.5105 121.315 86.5105H125.746H125.739Z" fill="black"/>
<path id="Vector_6" d="M37.3523 86.5889C36.4522 86.5889 36.0022 86.9737 36.0022 87.7435V107.964C36.0022 110.672 34.553 112.026 31.647 112.026H22.9289C20.0228 112.026 18.5736 110.672 18.5736 107.964V87.7435C18.5736 86.9737 18.1389 86.5889 17.2617 86.5889H21.7009C23.0738 86.5889 23.7603 87.1305 23.7603 88.2068V106.047C23.7603 106.759 24.1416 107.123 24.912 107.123H29.6944C30.4647 107.123 30.8461 106.766 30.8461 106.047V88.2068C30.8461 87.1305 31.5402 86.5889 32.9208 86.5889H37.3523Z" fill="black"/>
</g>
<g id="Group_4">
<path id="Vector_7" d="M18.7104 118.213H38.9764V118.47L40.6697 120.052V127.593H34.85V150.237C34.85 150.579 34.5525 150.857 34.1864 150.857H26.7345C26.559 150.857 26.3912 150.792 26.2616 150.678L24.9573 149.46C24.8352 149.346 24.6674 149.281 24.4844 149.281V127.607H20.6783L18.985 126.025H18.7104V118.228V118.213ZM32.5542 125.412H38.3281V118.812H19.3512V125.412H25.1251V148.056C25.1251 148.398 25.4226 148.676 25.7887 148.676H31.8906C32.2567 148.676 32.5542 148.398 32.5542 148.056V125.412Z" fill="black"/>
<path id="Vector_8" d="M42.1803 118.213H62.9039V118.47L64.5972 120.052V150.236C64.5972 150.579 64.2997 150.857 63.9336 150.857H56.802C56.6266 150.857 56.4588 150.792 56.3291 150.671L54.8265 149.267H54.6435L54.4223 149.06C54.3002 148.946 54.2239 148.79 54.2239 148.619V142.211C54.2239 141.869 53.9265 141.591 53.5604 141.591H53.1942C52.8281 141.591 52.5307 141.869 52.5307 142.211V150.222C52.5307 150.564 52.2332 150.842 51.8671 150.842H44.4151C44.2397 150.842 44.0719 150.778 43.9422 150.657L42.6379 149.438C42.5159 149.324 42.3481 149.253 42.165 149.253V118.192L42.1803 118.213ZM62.2632 148.048V118.812H42.8286V148.048C42.8286 148.39 43.1261 148.668 43.4922 148.668H49.5484C49.9145 148.668 50.2119 148.39 50.2119 148.048V140.08C50.2119 139.738 50.5094 139.46 50.8755 139.46H54.2239C54.5901 139.46 54.8875 139.738 54.8875 140.08V148.626L54.9333 148.668H61.6073C61.9734 148.668 62.2708 148.39 62.2708 148.048H62.2632ZM50.2043 125.405H54.8799V132.154C54.8799 132.496 54.5824 132.774 54.2163 132.774H50.8679C50.5018 132.774 50.2043 132.496 50.2043 132.154V125.405ZM52.5459 132.176H54.2392V127.593H52.5459V132.176Z" fill="black"/>
<path id="Vector_9" d="M66.1149 118.213H86.8385V118.47L88.5318 120.052V141.071C88.5318 141.334 88.3487 141.57 88.0818 141.655L76.9153 145.262C76.6483 145.347 76.4652 145.582 76.4652 145.846V150.222C76.4652 150.564 76.1678 150.842 75.8017 150.842H68.3497C68.1743 150.842 68.0065 150.778 67.8768 150.657L66.5725 149.438C66.4505 149.324 66.2827 149.253 66.0996 149.253V118.192L66.1149 118.213ZM74.5889 143.173L85.7401 139.645C86.0071 139.56 86.1902 139.324 86.1902 139.061V118.812H66.7556V148.048C66.7556 148.39 67.053 148.668 67.4191 148.668H73.4753C73.8414 148.668 74.1389 148.39 74.1389 148.048V143.758C74.1389 143.494 74.3219 143.259 74.5889 143.173ZM74.1389 125.412H78.8145V134.435C78.8145 134.699 78.6314 134.941 78.3568 135.027L75.0084 136.067C74.5813 136.203 74.1313 135.903 74.1313 135.476V125.412H74.1389ZM77.3576 134.72L77.7238 134.599C77.9907 134.514 78.1661 134.278 78.1661 134.015V127.6H76.4729V134.136C76.4729 134.563 76.9229 134.863 77.3576 134.72Z" fill="black"/>
<path id="Vector_10" d="M100.408 148.647V150.237C100.408 150.579 100.11 150.857 99.744 150.857H92.2921C92.1166 150.857 91.9488 150.793 91.8192 150.672L90.5149 149.453C90.3928 149.339 90.225 149.268 90.042 149.268V118.207H110.766V118.463L112.459 120.045V140.978C112.459 141.242 112.283 141.477 112.017 141.563L108.95 142.561C108.531 142.696 108.371 143.174 108.63 143.509L113.504 149.859C113.817 150.273 113.504 150.843 112.962 150.843H104.534C104.359 150.843 104.191 150.779 104.061 150.665L102.559 149.26H102.375L101.605 148.27C101.224 147.785 100.408 148.035 100.408 148.633V148.647ZM110.666 147.692L106.014 141.556C105.754 141.214 105.922 140.743 106.342 140.608L109.675 139.56C109.942 139.475 110.125 139.239 110.125 138.969V118.805H90.6903V148.042C90.6903 148.384 90.9878 148.662 91.3539 148.662H97.4101C97.7762 148.662 98.0736 148.384 98.0736 148.042V144.585C98.0736 143.986 98.8974 143.737 99.2788 144.221L102.505 148.405C102.627 148.569 102.833 148.662 103.047 148.662H110.133C110.674 148.662 110.987 148.092 110.674 147.685L110.666 147.692ZM98.066 135.391V125.412H102.742V134.35C102.742 134.614 102.559 134.856 102.284 134.942L98.9355 135.982C98.5084 136.118 98.0584 135.818 98.0584 135.391H98.066ZM101.285 134.635L101.651 134.514C101.918 134.428 102.093 134.193 102.093 133.929V127.6H100.4V134.051C100.4 134.478 100.85 134.778 101.285 134.635Z" fill="black"/>
<path id="Vector_11" d="M113.977 118.214H122.596V118.47L124.289 120.053V150.237C124.289 150.579 123.992 150.857 123.626 150.857H116.219C116.044 150.857 115.876 150.793 115.746 150.672L114.442 149.453C114.32 149.339 114.152 149.268 113.969 149.268V118.207L113.977 118.214ZM115.281 148.669H121.292C121.658 148.669 121.955 148.391 121.955 148.049V118.812H114.618V148.049C114.618 148.391 114.915 148.669 115.281 148.669Z" fill="black"/>
</g>
</g>
<g id="Group_5">
<g id="Group_6">
<g id="Page-1">
<g id="002---Medium-Spice">
<path id="Shape" d="M82.5829 39.0853C82.5142 39.0568 82.4379 39.0568 82.3693 39.0853C82.3006 39.1139 82.2473 39.1637 82.2168 39.2208C82.1405 39.3989 82.0566 39.57 81.9727 39.7411C81.904 39.8694 81.965 40.019 82.1023 40.0832C82.1176 40.0903 82.1328 40.0974 82.1557 40.0974C82.2854 40.1259 82.4151 40.0689 82.4685 39.962C82.56 39.791 82.6439 39.6056 82.7278 39.4203C82.7583 39.3562 82.7583 39.2849 82.7278 39.2208C82.6973 39.1566 82.6439 39.1067 82.5829 39.0782V39.0853Z" fill="black"/>
<path id="Shape_2" d="M81.8351 40.5604C81.7055 40.4891 81.5377 40.5248 81.4614 40.6459C80.6376 41.9288 79.6384 42.7699 78.4104 43.226C78.2731 43.2759 78.2045 43.4256 78.2579 43.561C78.3113 43.6893 78.4714 43.7535 78.6164 43.7036C79.9588 43.2046 81.0419 42.2923 81.9343 40.9096C81.9724 40.8526 81.98 40.7813 81.9648 40.7172C81.9495 40.6531 81.9038 40.596 81.8427 40.5604H81.8351Z" fill="black"/>
<path id="Shape_3" d="M86.6712 37.4244C86.6483 37.3246 86.633 37.2319 86.6254 37.1321C86.6254 36.7045 86.4424 36.2911 86.1068 35.9989C86.0305 35.9347 86.0076 35.8421 86.0305 35.7494L86.3051 34.7516C86.4271 34.3097 86.4652 34.2598 86.9763 34.3881C87.2051 34.4451 87.4568 34.4024 87.6551 34.2741C87.8534 34.1458 87.9831 33.9462 88.006 33.7181C88.0365 33.3261 87.7619 32.9698 87.35 32.8842C85.9847 32.5706 85.0771 33.0767 84.7186 34.3596L84.444 35.3503C84.4211 35.443 84.3525 35.5142 84.2533 35.5356C83.7804 35.6425 83.3609 35.9062 83.0787 36.2769C83.0558 36.3054 83.0329 36.3339 83.0253 36.3695C82.3693 36.676 81.843 37.403 81.21 38.8142C79.8218 41.9075 77.8158 42.9979 74.4979 42.4634C73.3156 42.2567 72.1563 41.9645 71.035 41.5796C70.0587 41.266 69.4638 41.0736 69.0977 41.266C68.9528 41.3373 68.8536 41.4656 68.8155 41.6152C68.5409 42.6131 69.6774 44.4733 73.9639 45.521C83.3228 47.8018 85.7864 41.7507 86.3203 39.8405C86.4881 39.2418 86.7169 38.4079 86.5644 37.6881C86.6559 37.6311 86.7017 37.5313 86.6788 37.4315L86.6712 37.4244ZM84.3525 36.0488C84.6576 35.9918 84.9016 35.7708 84.9703 35.4928L85.2449 34.5021C85.5271 33.4972 86.1525 33.1479 87.2127 33.3903C87.3577 33.4188 87.4568 33.5328 87.4568 33.6682C87.4568 33.7466 87.4034 33.8108 87.3424 33.8536C87.2814 33.8963 87.1898 33.9106 87.1136 33.8892C86.2288 33.6754 85.9466 33.9961 85.7712 34.6233L85.4889 35.6211C85.405 35.8991 85.5042 36.1985 85.733 36.3838C85.9161 36.5406 86.0305 36.7615 86.0381 36.9967C85.6034 36.8898 85.1381 36.9611 84.7567 37.1963C84.5584 36.8043 84.2152 36.4907 83.788 36.3054C83.9329 36.1699 84.1236 36.0844 84.3219 36.0488H84.3525ZM74.0936 45.0221C70.0816 44.0457 69.1587 42.3921 69.3417 41.7435C69.3417 41.7364 69.3417 41.7293 69.3494 41.7222C69.479 41.6295 70.2418 41.8718 70.852 42.0714C72.0037 42.4634 73.1936 42.7699 74.4063 42.9837C77.976 43.561 80.2337 42.3422 81.721 39.028C82.3922 37.5313 82.888 36.9041 83.5363 36.7544C83.8796 36.8827 84.1541 37.1321 84.3067 37.4457C84.3753 37.574 84.4974 37.6596 84.6423 37.7023C84.7872 37.738 84.9398 37.7166 85.0694 37.6453C85.3135 37.4743 85.6339 37.4244 85.9313 37.5028C86.2212 38.1228 85.9618 39.0779 85.7788 39.7194C85.2754 41.5083 82.9566 47.1888 74.0936 45.0292V45.0221Z" fill="black"/>
</g>
</g>
<path id="Vector_12" d="M66.3818 21.2238C66.1988 21.8011 65.7182 22.186 65.108 22.1931C65.1386 22.0006 65.6877 21.4091 66.3818 21.2238ZM76.0152 24.3242C77.4797 24.2386 78.9441 24.7233 79.9891 25.6855C79.6382 26.22 79.2721 26.719 78.8831 27.1822C78.6543 27.4317 78.5933 27.8166 78.7763 28.123C79.2263 29.0425 80.2866 29.6483 81.3849 29.6554C81.1637 30.6533 80.5001 31.5299 79.5925 32.0787C79.9052 29.3988 77.1898 26.6334 74.5965 25.7568C74.4287 25.714 74.2228 25.771 74.177 25.9278C74.1313 26.0846 74.1923 26.2771 74.3601 26.3198C75.9618 26.8686 78.0517 28.4937 78.7306 30.4466C79.5925 32.877 77.7466 34.8869 75.733 34.5947C75.8932 33.0979 74.505 29.6127 71.599 27.168C71.4464 27.0682 71.2634 27.0753 71.1337 27.1822C71.0269 27.3248 71.0345 27.4958 71.1489 27.617C72.9185 29.0995 74.2304 31.0809 74.894 33.1692C75.3821 34.6446 75.1609 35.6424 73.6355 36.3409C72.5219 36.8683 70.8667 37.1035 69.7608 36.4335C68.6395 35.7279 67.7548 34.5448 67.3963 33.1407C66.9157 31.3517 67.198 29.3489 67.4649 27.6241C67.4802 27.4816 67.3429 27.3319 67.1903 27.3248C67.0378 27.3177 66.8776 27.4388 66.87 27.5814C66.6259 29.3418 66.3284 31.4016 66.8318 33.3046C67.2971 35.1435 68.7311 37.018 70.6379 37.3601C69.2726 38.4149 67.2208 38.6288 65.6115 37.9089C63.8724 37.1249 62.8046 35.2361 63.0487 33.4757C63.3919 31.088 65.7487 29.2135 66.2522 26.6976C66.5115 25.3719 66.1911 23.9393 65.3826 22.806C66.153 22.6706 66.6945 22.2216 66.931 21.573C67.6098 22.243 68.2887 22.913 69.0895 23.4689C72.0871 25.5073 73.994 24.4026 76.0305 24.3242H76.0152ZM85.641 27.2535C86.4266 25.6997 86.0681 23.8039 85.0308 22.4354C84.1231 21.2166 82.7502 20.3328 81.2781 19.7627C81.0874 19.6843 80.8815 19.5702 80.6908 19.4918C80.3857 19.3849 80.0882 19.67 80.2789 19.9266C81.2629 21.2808 81.4688 22.9914 80.2789 25.1509C79.1272 24.2386 77.5483 23.7255 75.9695 23.7825C73.8414 23.8609 72.1939 24.93 69.4557 23.0127C68.5556 22.3713 67.7395 21.5516 67.0073 20.7747C66.9844 20.7391 66.931 20.7249 66.8776 20.7106C66.5725 20.511 65.2835 20.8175 64.6275 21.8652C64.4521 22.1289 64.4521 22.5281 64.7267 22.8345C65.5657 23.8609 65.9242 25.2721 65.6801 26.5479C65.1004 29.4986 61.5003 31.7509 62.6673 35.3502C63.1707 37.5668 65.1386 38.9923 67.2056 39.1206C68.7539 39.256 70.5159 38.7927 71.5303 37.6951C73.2465 37.9588 75.016 37.189 75.8703 35.4215C77.7161 35.5783 79.3789 34.4593 79.8823 32.8271C81.2324 32.3068 82.1705 31.1664 82.3383 29.8407C82.8951 29.8194 83.4596 29.4844 83.9248 29.1565C84.6113 28.6291 85.252 28.0304 85.6486 27.2535H85.641ZM81.4764 20.8175C82.6282 21.6443 83.368 22.9842 83.368 24.3598C83.3451 26.0062 82.2544 27.5386 80.8739 28.2513C80.6908 28.344 80.645 28.5008 80.7213 28.6362C80.7976 28.7716 80.9883 28.85 81.1332 28.7788C83.8028 27.4459 84.9088 24.0961 82.9638 21.516C83.1926 21.6657 83.3833 21.8296 83.5968 22.0292C84.5198 22.8773 85.3664 24.3028 85.0537 25.7069C84.8782 26.4624 84.3977 27.3248 83.8485 27.9164C83.2994 28.5079 82.5748 28.8857 81.7434 28.9997C80.7823 29.1423 79.7755 28.6362 79.3331 27.8023C79.2721 27.7025 79.2874 27.56 79.3713 27.4745C81.034 25.4717 82.2773 23.2408 81.4688 20.8246L81.4764 20.8175Z" fill="black"/>
</g>
<path id="Vector_13" d="M102.551 38.3577C101.681 36.583 99.637 35.5852 97.5319 35.9131C95.503 36.2267 93.9318 37.8303 93.7411 39.769C93.7029 40.1823 93.7334 40.5601 93.2987 40.8951C89.9045 43.4823 86.5332 46.0909 83.1619 48.6995H79.9202C74.8862 48.7423 69.8444 48.7209 64.8104 48.7138C64.4443 48.7138 64.0781 48.6568 63.9332 48.6496C63.8035 47.1885 63.7273 45.8985 63.5671 44.6013C63.4679 43.746 62.9722 43.6177 62.1865 44.0667C60.8136 44.8935 59.7915 45.9769 59.1432 47.609C57.6711 45.2998 56.6262 43.0903 56.2448 40.6456C56.2143 40.4033 56.3592 40.0754 56.527 39.883C58.1822 38.0869 58.3728 36.7968 57.1296 34.6159C56.8169 34.0599 56.3211 33.5824 55.9168 33.0835C55.4058 33.5539 54.8032 33.9815 54.4219 34.5232C53.1786 36.2409 53.0642 38.1368 54.2922 39.2843C55.2532 40.1823 55.2838 41.2443 55.5888 42.456C53.6667 41.9927 51.9963 42.3348 50.3717 43.0618C49.5937 43.4039 49.4335 43.8672 50.1353 44.359C51.1116 45.0503 52.1031 45.927 53.232 46.1978C54.3151 46.4473 55.5888 46.0268 56.9465 45.8842C57.3813 46.6041 57.9457 47.5734 58.6245 48.7138H57.1143C54.9939 48.7138 52.8887 48.7138 50.7836 48.7209C49.403 48.728 49.0217 49.0701 49.014 50.3317C48.9912 51.9068 48.9988 53.482 48.9988 55.05C48.9988 57.2951 49.0369 57.3165 51.4548 57.5303C51.5158 57.5303 51.5692 57.6016 51.7141 57.7085V58.8417C51.7141 62.7333 51.6912 66.6319 51.737 70.5235C51.7675 74.5077 54.3685 77.7506 58.3881 78.8625C58.9678 79.0335 59.5856 79.1191 60.3331 79.283H86.4493C87.1815 79.1191 87.7993 79.0335 88.3943 78.8625C92.4063 77.7506 94.9996 74.5077 95.0454 70.5235L94.9691 60.5951V57.566C95.2818 57.5303 95.4649 57.4875 95.6632 57.4875C97.5624 57.3949 97.7988 57.1668 97.7988 55.3992V50.574C97.7836 49.0345 97.509 48.7779 95.8081 48.7138H94.2674C94.3208 48.6568 94.3741 48.5997 94.4275 48.5356C95.4649 47.2812 96.5708 46.0695 97.6692 44.8579C97.837 44.6868 98.1497 44.5514 98.3938 44.5372C99.4998 44.5015 100.468 44.1665 101.315 43.5179C102.917 42.2992 103.428 40.1538 102.551 38.3577ZM55.4363 45.1501C54.132 45.8129 52.576 45.3782 51.165 43.8957C52.8277 42.9976 54.6202 42.9478 55.5965 43.7674C56.344 44.3732 56.2982 44.7011 55.4363 45.1501ZM55.7109 39.1774C54.01 38.094 54.0329 36.2053 55.7643 34.5232C57.2592 36.0556 57.2516 38.1154 55.7109 39.1774ZM60.5695 47.0531C61.0424 46.2976 61.7136 45.6561 62.3162 44.9577L62.7281 45.1002C62.7281 46.0695 62.7891 47.0389 62.6823 47.9868C62.6518 48.2576 62.1789 48.6283 61.8433 48.6781C61.3857 48.7637 60.6 48.7209 60.4704 48.4857C60.2644 48.1151 60.3178 47.438 60.5695 47.0531ZM93.9775 62.0205C93.9775 64.8644 93.9851 67.701 93.9775 70.5377C93.9775 70.9012 93.947 71.2505 93.9012 71.6068C93.8784 71.7779 93.8479 71.9489 93.8021 72.12C93.6267 72.9967 93.3292 73.7949 92.9097 74.5005C91.5139 76.8882 88.8367 78.2567 85.2365 78.2567C80.4694 78.2638 75.6947 78.2567 70.9199 78.2638H70.508C67.5181 78.2638 64.5282 78.2638 61.5382 78.2567C56.1075 78.2567 52.7591 75.1277 52.7591 70.0602V57.5517H93.9775V62.0205ZM95.4649 49.5904C96.5556 49.5904 96.8912 49.8898 96.8378 50.8876C96.7615 52.3416 96.7539 53.817 96.8454 55.2709C96.8988 56.3187 96.4717 56.5396 95.4191 56.5396C81.8728 56.5111 68.3113 56.5111 54.7575 56.5111C53.5142 56.5111 52.2557 56.4826 50.9972 56.5325C50.2344 56.5467 49.9827 56.2688 49.998 55.5632C50.0285 53.988 50.0819 52.4129 49.9827 50.8591C49.9217 49.7829 50.3717 49.5976 51.4014 49.5976C58.7847 49.6261 66.168 49.619 73.5437 49.619C76.5108 49.619 79.4626 49.619 82.422 49.619H83.6348C87.5781 49.619 91.5215 49.6189 95.4649 49.5833V49.5904ZM98.2412 43.3754C97.6082 43.3683 97.1734 43.5821 96.7844 44.0311C95.9072 45.0574 94.9996 46.0624 94.1072 47.0745C93.6419 47.6019 93.1766 48.1365 92.6732 48.7067H85.1145C88.1502 46.319 91.2011 43.967 94.2674 41.6149C94.7403 41.2514 94.9538 40.8381 94.9462 40.2536C94.9233 38.4219 96.4259 36.9964 98.3328 36.9893C100.217 36.9822 101.765 38.4219 101.757 40.1752C101.757 41.9856 100.209 43.4182 98.2412 43.3754Z" fill="black"/>
</g>
</g>
</g>
</svg>
